<svg viewBox="0 0 157 40" x="0" y="0" fill="none" xmlns="http://www.w3.org/2000/svg"><g id="Group 15" xmlns="http://www.w3.org/2000/svg">
<rect id="Rectangle 153_2" x="0" y="0" width="157" height="40" fill="#A2A2A2"/>
<path id="Back" d="M57.097,27v-14.545h5.086c1.013,0 1.848,0.175 2.507,0.525c0.658,0.346 1.148,0.812 1.47,1.399c0.322,0.583 0.483,1.229 0.483,1.939c0,0.625 -0.112,1.141 -0.334,1.548c-0.218,0.408 -0.507,0.73 -0.867,0.966c-0.355,0.237 -0.741,0.412 -1.157,0.526v0.142c0.445,0.028 0.892,0.185 1.342,0.469c0.45,0.284 0.826,0.691 1.129,1.221c0.303,0.531 0.455,1.179 0.455,1.946c0,0.73 -0.166,1.385 -0.497,1.968c-0.332,0.582 -0.855,1.044 -1.57,1.385c-0.715,0.341 -1.645,0.511 -2.791,0.511zM58.859,25.438h3.494c1.151,0 1.967,-0.223 2.45,-0.668c0.488,-0.45 0.732,-0.994 0.732,-1.634c0,-0.492 -0.126,-0.947 -0.377,-1.363c-0.251,-0.422 -0.608,-0.758 -1.072,-1.009c-0.464,-0.255 -1.013,-0.383 -1.648,-0.383h-3.579zM58.859,18.847h3.267c0.53,0 1.008,-0.105 1.434,-0.313c0.431,-0.208 0.772,-0.502 1.023,-0.881c0.256,-0.378 0.384,-0.823 0.384,-1.335c0,-0.639 -0.223,-1.181 -0.668,-1.626c-0.445,-0.45 -1.151,-0.675 -2.116,-0.675h-3.324zM73.088,27.256c-0.691,0 -1.319,-0.131 -1.882,-0.391c-0.563,-0.265 -1.011,-0.646 -1.342,-1.143c-0.332,-0.502 -0.498,-1.108 -0.498,-1.819c0,-0.625 0.124,-1.131 0.37,-1.519c0.246,-0.393 0.575,-0.701 0.987,-0.924c0.412,-0.222 0.866,-0.388 1.364,-0.497c0.502,-0.114 1.006,-0.204 1.512,-0.27c0.663,-0.085 1.201,-0.149 1.613,-0.192c0.416,-0.047 0.719,-0.125 0.909,-0.234c0.194,-0.109 0.291,-0.298 0.291,-0.568v-0.057c0,-0.701 -0.192,-1.245 -0.575,-1.633c-0.379,-0.389 -0.954,-0.583 -1.726,-0.583c-0.8,0 -1.428,0.175 -1.882,0.526c-0.455,0.35 -0.774,0.724 -0.959,1.122l-1.591,-0.568c0.284,-0.663 0.663,-1.179 1.136,-1.549c0.479,-0.374 0.999,-0.634 1.563,-0.781c0.568,-0.151 1.127,-0.227 1.676,-0.227c0.35,0 0.753,0.042 1.207,0.128c0.46,0.08 0.902,0.248 1.328,0.504c0.431,0.256 0.789,0.642 1.073,1.158c0.284,0.516 0.426,1.207 0.426,2.073v7.188h-1.676v-1.477h-0.085c-0.114,0.236 -0.303,0.49 -0.568,0.76c-0.266,0.27 -0.618,0.499 -1.059,0.689c-0.44,0.189 -0.977,0.284 -1.612,0.284zM73.344,25.75c0.663,0 1.221,-0.13 1.676,-0.391c0.459,-0.26 0.805,-0.596 1.037,-1.008c0.237,-0.412 0.355,-0.845 0.355,-1.3v-1.534c-0.071,0.085 -0.227,0.163 -0.469,0.234c-0.237,0.067 -0.511,0.126 -0.824,0.178c-0.307,0.047 -0.608,0.09 -0.902,0.128c-0.288,0.033 -0.523,0.061 -0.703,0.085c-0.435,0.057 -0.843,0.149 -1.221,0.277c-0.374,0.123 -0.677,0.31 -0.909,0.561c-0.228,0.246 -0.341,0.582 -0.341,1.009c0,0.582 0.215,1.022 0.646,1.321c0.436,0.293 0.987,0.44 1.655,0.44zM85.579,27.227c-1.023,0 -1.903,-0.241 -2.642,-0.724c-0.738,-0.483 -1.307,-1.148 -1.704,-1.996c-0.398,-0.847 -0.597,-1.816 -0.597,-2.905c0,-1.108 0.204,-2.085 0.611,-2.933c0.412,-0.852 0.985,-1.517 1.719,-1.996c0.738,-0.483 1.6,-0.724 2.585,-0.724c0.767,0 1.458,0.142 2.074,0.426c0.615,0.284 1.119,0.682 1.512,1.193c0.393,0.512 0.637,1.108 0.732,1.79h-1.676c-0.128,-0.497 -0.412,-0.938 -0.852,-1.321c-0.436,-0.388 -1.023,-0.582 -1.762,-0.582c-0.653,0 -1.226,0.17 -1.719,0.511c-0.487,0.336 -0.868,0.812 -1.143,1.427c-0.27,0.611 -0.405,1.329 -0.405,2.152c0,0.843 0.133,1.577 0.398,2.202c0.27,0.625 0.649,1.11 1.136,1.456c0.493,0.346 1.07,0.519 1.733,0.519c0.436,0 0.831,-0.076 1.186,-0.228c0.355,-0.151 0.656,-0.369 0.902,-0.653c0.246,-0.284 0.422,-0.625 0.526,-1.023h1.676c-0.095,0.644 -0.329,1.224 -0.703,1.74c-0.369,0.512 -0.86,0.919 -1.47,1.222c-0.606,0.298 -1.312,0.447 -2.117,0.447zM93.882,23.023l-0.029,-2.074h0.341l4.773,-4.858h2.074l-5.085,5.142h-0.142zM92.319,27v-14.545h1.676v14.545zM99.251,27l-4.261,-5.398l1.193,-1.164l5.199,6.562z" fill="black"/>
</g></svg>