<svg viewBox="0 0 157 40" x="0" y="0" fill="none" xmlns="http://www.w3.org/2000/svg"><g id="Group 14" xmlns="http://www.w3.org/2000/svg">
<rect id="Rectangle 153" x="0" y="0" width="157" height="40" fill="#A2A2A2"/>
<path id="Complete" d="M46.351,17h-1.762c-0.104,-0.507 -0.286,-0.952 -0.547,-1.335c-0.255,-0.384 -0.568,-0.706 -0.937,-0.966c-0.365,-0.265 -0.769,-0.464 -1.215,-0.597c-0.445,-0.132 -0.909,-0.199 -1.392,-0.199c-0.88,0 -1.678,0.223 -2.393,0.668c-0.71,0.445 -1.276,1.101 -1.698,1.967c-0.416,0.867 -0.625,1.93 -0.625,3.189c0,1.26 0.209,2.323 0.625,3.189c0.422,0.867 0.988,1.522 1.698,1.968c0.715,0.445 1.513,0.667 2.393,0.667c0.483,0 0.947,-0.066 1.392,-0.199c0.446,-0.132 0.85,-0.329 1.215,-0.589c0.369,-0.265 0.682,-0.59 0.937,-0.973c0.261,-0.388 0.443,-0.834 0.547,-1.335h1.762c-0.133,0.743 -0.374,1.408 -0.725,1.995c-0.35,0.587 -0.786,1.087 -1.307,1.499c-0.52,0.407 -1.105,0.717 -1.754,0.93c-0.644,0.213 -1.333,0.32 -2.067,0.32c-1.24,0 -2.343,-0.303 -3.309,-0.909c-0.966,-0.606 -1.726,-1.468 -2.28,-2.585c-0.554,-1.118 -0.831,-2.444 -0.831,-3.978c0,-1.534 0.277,-2.86 0.831,-3.977c0.554,-1.117 1.314,-1.979 2.28,-2.585c0.966,-0.606 2.069,-0.909 3.309,-0.909c0.734,0 1.423,0.106 2.067,0.319c0.649,0.213 1.234,0.526 1.754,0.938c0.521,0.407 0.957,0.904 1.307,1.491c0.351,0.583 0.592,1.248 0.725,1.996zM53.401,27.227c-0.984,0 -1.849,-0.234 -2.592,-0.703c-0.739,-0.469 -1.316,-1.124 -1.733,-1.967c-0.412,-0.843 -0.618,-1.828 -0.618,-2.955c0,-1.136 0.206,-2.128 0.618,-2.976c0.417,-0.847 0.994,-1.505 1.733,-1.974c0.743,-0.469 1.608,-0.703 2.592,-0.703c0.985,0 1.847,0.234 2.586,0.703c0.743,0.469 1.321,1.127 1.733,1.974c0.416,0.848 0.625,1.84 0.625,2.976c0,1.127 -0.209,2.112 -0.625,2.955c-0.412,0.843 -0.99,1.498 -1.733,1.967c-0.739,0.469 -1.601,0.703 -2.586,0.703zM53.401,25.722c0.749,0 1.364,-0.192 1.847,-0.576c0.483,-0.383 0.84,-0.887 1.072,-1.512c0.232,-0.625 0.349,-1.303 0.349,-2.032c0,-0.729 -0.117,-1.408 -0.349,-2.038c-0.232,-0.63 -0.589,-1.139 -1.072,-1.527c-0.483,-0.388 -1.098,-0.582 -1.847,-0.582c-0.748,0 -1.363,0.194 -1.846,0.582c-0.483,0.388 -0.841,0.897 -1.073,1.527c-0.232,0.63 -0.348,1.309 -0.348,2.038c0,0.729 0.116,1.407 0.348,2.032c0.232,0.625 0.59,1.129 1.073,1.512c0.483,0.384 1.098,0.576 1.846,0.576zM60.903,27v-10.909h1.62v1.704h0.142c0.227,-0.582 0.594,-1.034 1.1,-1.356c0.507,-0.327 1.116,-0.49 1.826,-0.49c0.719,0 1.318,0.163 1.797,0.49c0.483,0.322 0.859,0.774 1.129,1.356h0.114c0.279,-0.563 0.698,-1.01 1.257,-1.342c0.558,-0.336 1.228,-0.504 2.01,-0.504c0.975,0 1.773,0.305 2.393,0.916c0.62,0.606 0.93,1.551 0.93,2.834v7.301h-1.676v-7.301c0,-0.805 -0.22,-1.38 -0.66,-1.726c-0.441,-0.346 -0.959,-0.518 -1.556,-0.518c-0.767,0 -1.361,0.232 -1.782,0.696c-0.422,0.459 -0.632,1.041 -0.632,1.747v7.102h-1.705v-7.472c0,-0.62 -0.201,-1.119 -0.604,-1.498c-0.402,-0.384 -0.921,-0.575 -1.555,-0.575c-0.436,0 -0.843,0.116 -1.222,0.348c-0.374,0.232 -0.677,0.554 -0.909,0.965c-0.227,0.408 -0.341,0.879 -0.341,1.414v6.818zM78.29,31.091v-15h1.62v1.733h0.19c0.13,-0.19 0.3,-0.431 0.52,-0.725c0.22,-0.298 0.54,-0.563 0.95,-0.795c0.41,-0.237 0.98,-0.355 1.69,-0.355c0.92,0 1.73,0.23 2.43,0.689c0.7,0.459 1.24,1.11 1.64,1.953c0.39,0.843 0.59,1.837 0.59,2.983c0,1.155 -0.2,2.157 -0.59,3.004c-0.4,0.843 -0.94,1.496 -1.64,1.96c-0.69,0.46 -1.49,0.689 -2.4,0.689c-0.7,0 -1.27,-0.116 -1.69,-0.348c-0.42,-0.236 -0.74,-0.504 -0.97,-0.802c-0.23,-0.303 -0.4,-0.554 -0.53,-0.753h-0.14v5.767zM79.93,21.545c0,0.824 0.12,1.551 0.37,2.181c0.24,0.625 0.59,1.115 1.05,1.47c0.47,0.35 1.04,0.526 1.71,0.526c0.7,0 1.28,-0.185 1.75,-0.554c0.48,-0.374 0.83,-0.876 1.07,-1.506c0.24,-0.635 0.36,-1.34 0.36,-2.117c0,-0.767 -0.12,-1.458 -0.35,-2.073c-0.24,-0.621 -0.59,-1.111 -1.06,-1.471c-0.47,-0.364 -1.06,-0.546 -1.77,-0.546c-0.68,0 -1.26,0.172 -1.72,0.518c-0.46,0.341 -0.81,0.819 -1.05,1.435c-0.24,0.61 -0.36,1.323 -0.36,2.137zM92.15,12.455v14.545h-1.68v-14.545zM99.79,27.227c-1.05,0 -1.95,-0.232 -2.72,-0.696c-0.75,-0.469 -1.34,-1.122 -1.75,-1.96c-0.41,-0.843 -0.61,-1.823 -0.61,-2.94c0,-1.118 0.2,-2.103 0.61,-2.955c0.41,-0.857 0.98,-1.524 1.72,-2.003c0.74,-0.483 1.6,-0.724 2.58,-0.724c0.57,0 1.13,0.095 1.69,0.284c0.55,0.189 1.05,0.497 1.51,0.923c0.45,0.422 0.82,0.98 1.09,1.676c0.27,0.696 0.4,1.553 0.4,2.571v0.711h-8.41v-1.449h6.71c0,-0.616 -0.13,-1.165 -0.37,-1.648c-0.24,-0.483 -0.59,-0.864 -1.04,-1.143c-0.45,-0.28 -0.97,-0.419 -1.58,-0.419c-0.66,0 -1.24,0.165 -1.73,0.497c-0.48,0.326 -0.85,0.753 -1.11,1.278c-0.27,0.526 -0.4,1.089 -0.4,1.69v0.966c0,0.824 0.15,1.523 0.43,2.096c0.29,0.568 0.69,1.001 1.2,1.299c0.51,0.294 1.11,0.441 1.78,0.441c0.44,0 0.84,-0.062 1.2,-0.185c0.36,-0.128 0.67,-0.317 0.93,-0.568c0.26,-0.256 0.46,-0.573 0.6,-0.952l1.62,0.455c-0.17,0.549 -0.46,1.032 -0.86,1.448c-0.4,0.412 -0.9,0.734 -1.49,0.966c-0.59,0.228 -1.26,0.341 -2,0.341zM111.6,16.091v1.42h-5.65v-1.42zM107.6,13.477h1.68v10.398c0,0.473 0.06,0.829 0.2,1.065c0.14,0.232 0.32,0.389 0.54,0.469c0.22,0.076 0.46,0.114 0.7,0.114c0.19,0 0.34,-0.01 0.46,-0.029c0.12,-0.023 0.21,-0.042 0.28,-0.056l0.34,1.505c-0.11,0.043 -0.27,0.085 -0.47,0.128c-0.21,0.047 -0.46,0.071 -0.78,0.071c-0.47,0 -0.93,-0.102 -1.39,-0.305c-0.45,-0.204 -0.82,-0.514 -1.12,-0.931c-0.29,-0.416 -0.44,-0.942 -0.44,-1.576zM118.58,27.227c-1.05,0 -1.96,-0.232 -2.72,-0.696c-0.76,-0.469 -1.34,-1.122 -1.75,-1.96c-0.41,-0.843 -0.61,-1.823 -0.61,-2.94c0,-1.118 0.2,-2.103 0.61,-2.955c0.41,-0.857 0.98,-1.524 1.72,-2.003c0.74,-0.483 1.6,-0.724 2.58,-0.724c0.57,0 1.13,0.095 1.69,0.284c0.55,0.189 1.05,0.497 1.51,0.923c0.45,0.422 0.81,0.98 1.08,1.676c0.27,0.696 0.41,1.553 0.41,2.571v0.711h-8.41v-1.449h6.71c0,-0.616 -0.13,-1.165 -0.37,-1.648c-0.25,-0.483 -0.59,-0.864 -1.04,-1.143c-0.45,-0.28 -0.97,-0.419 -1.58,-0.419c-0.67,0 -1.24,0.165 -1.73,0.497c-0.48,0.326 -0.86,0.753 -1.12,1.278c-0.26,0.526 -0.39,1.089 -0.39,1.69v0.966c0,0.824 0.15,1.523 0.43,2.096c0.29,0.568 0.69,1.001 1.2,1.299c0.51,0.294 1.11,0.441 1.78,0.441c0.44,0 0.84,-0.062 1.2,-0.185c0.36,-0.128 0.67,-0.317 0.93,-0.568c0.26,-0.256 0.46,-0.573 0.6,-0.952l1.62,0.455c-0.17,0.549 -0.46,1.032 -0.86,1.448c-0.4,0.412 -0.9,0.734 -1.49,0.966c-0.59,0.228 -1.26,0.341 -2,0.341z" fill="black"/>
</g></svg>